<?xml version="1.0" encoding="utf-8"?>
<!-- Generator: Adobe Illustrator 21.0.2, SVG Export Plug-In . SVG Version: 6.00 Build 0)  -->
<svg version="1.1" id="Layer_1" xmlns="http://www.w3.org/2000/svg" xmlns:xlink="http://www.w3.org/1999/xlink" x="0px" y="0px"
	 viewBox="0 0 60 104" style="enable-background:new 0 0 60104;" xml:space="preserve">
<style type="text/css">
	.st0{fill-rule:evenodd;clip-rule:evenodd;fill:#C5A47F;}
	.st1{fill:none;}
</style>
<path class="st0" d="M25.8,0c6.5,16.5,2.6,29.6-11.7,41.8C2.9,51.6-1.5,63.7,0.5,74.9C3.5,86.7,13,96.3,26,98.8
	c8.5,1,18.2-1.6,26.6-8.2c-21.5,10.8-41.2-7.3-32.6-28.8c1.6-3.5,3.8-6.9,6.5-10.4c7.7-9.7,11.3-18.9,10.8-27.3
	C35.9,13.6,31,7.7,25.8,0L25.8,0z"/>
<path class="st0" d="M22.8,74.2c4.4,6.3,12.8,7.5,17.2,3.7c3.1-2.8,4-6.5,2.7-11.1c-1.8-4.7-5.3-6.8-10.7-6.5
	c5.9-2.7,11.1-1.4,15.6,3.9c0.6,0.9,1.1,1.8,1.4,3c2-8.8-2.2-15.2-10.8-18c8.6-0.8,16.3,3.1,20.8,10.7c4.2,7.5,3.2,17.8-3.4,24.2
	C46,94.1,25.2,88.6,22.8,74.2L22.8,74.2z"/>
<g>
	<path class="st1" d="M95.2,74.1H93L79.6,87.9V74.1h-1.6v21h1.6v-5.4l5.2-5.3l8.7,10.6h2L86,83.4L95.2,74.1z M111.6,73.9l-9.8,21.2
		h1.6l2.7-5.9h12.4l2.7,5.9h1.7l-9.8-21.2H111.6z M106.8,87.8l5.6-12.2l5.5,12.2H106.8z M135.5,78.1c0,14.8-3,15.8-4.6,15.8
		c-0.8,0-1.7-0.2-2-0.4l-0.5,1.3c0.6,0.2,1.7,0.5,2.5,0.5c3,0,6.1-1.9,6.1-17.2v-2.6h9.8v19.6h1.6v-21h-12.9V78.1z M166.5,82.5h-6.2
		v-8.4h-1.6v21h7.9c4.5,0,7.5-2.5,7.5-6.6C174.2,84.2,170.5,82.5,166.5,82.5z M166.4,93.7h-6.1V84h5.9c3.9,0,6.3,1.5,6.3,4.7
		C172.5,92,170.2,93.7,166.4,93.7z M182,80.2c0,3.6,2.4,5.7,5.9,6.2l-6.7,8.7h2l6.5-8.4h7.1v8.4h1.6v-21h-8.8
		C184.8,74.1,182,76.7,182,80.2z M196.8,75.5v9.8h-7.1c-3.5,0-6.1-1.9-6.1-5c0-2.9,2.2-4.8,6-4.8H196.8z M223.7,83.8h-13.5v-9.7
		h-1.6v21h1.6v-9.9h13.5v9.9h1.6v-21h-1.6V83.8z M234.6,87h8.1v-1.7h-8.1V87z M261.6,94.1c-5,0-8.9-4.1-8.9-9.5
		c0-5.4,3.8-9.5,8.9-9.5c3.2,0,5.3,1.3,7.1,3.1l1-1.1c-2.2-2-4.3-3.5-8.1-3.5c-6.1,0-10.5,4.9-10.5,10.9c0,6.1,4.5,10.9,10.5,10.9
		c3.7,0,6.1-1.5,8.4-3.7l-1.1-1C266.7,92.9,264.6,94.1,261.6,94.1z M279.8,85.2h12.1v-1.4h-12.1v-8.3h13.4v-1.4h-15v21h15.1v-1.4
		h-13.6V85.2z M310.1,74.1h-7.6v21h1.6v-7.8h5.7c4.4,0,8.2-2.3,8.2-6.7C318,76.4,314.8,74.1,310.1,74.1z M309.8,85.8h-5.8V75.5h6
		c3.8,0,6.4,1.7,6.4,5.1C316.4,83.8,313.7,85.8,309.8,85.8z M338.6,84.3c1.7-0.7,3.6-2.1,3.6-5c0-3.2-2.7-5.2-6.8-5.2h-8.7v21h9.1
		c4.5,0,7.5-2.2,7.5-5.7C343.4,86.4,341.1,84.9,338.6,84.3z M328.2,75.5h7.1c3.4,0,5.3,1.6,5.3,3.9c0,2.9-2.3,4.4-5.4,4.4h-6.9V75.5
		z M335.9,93.7h-7.6v-8.4h7.1c4.1,0,6.4,1.5,6.4,4.1C341.8,92,339.5,93.7,335.9,93.7z M354,92.9V74.1h-1.6v21h1.6l13.7-18.8v18.8
		h1.6v-21h-1.5L354,92.9z M396.4,90.8c-2.1,2.1-4.2,3.3-7.2,3.3c-5,0-8.9-4.1-8.9-9.5c0-5.4,3.8-9.5,8.9-9.5c3.2,0,5.3,1.3,7.1,3.1
		l1-1.1c-2.2-2-4.3-3.5-8.1-3.5c-6.1,0-10.5,4.9-10.5,10.9c0,6.1,4.5,10.9,10.5,10.9c3.7,0,6.1-1.5,8.4-3.7L396.4,90.8z M78.4,46.7
		l10.2-10.1l16.2,20.5h2.4L89.9,35.4L106.5,19H104L78.4,44.5V19h-1.9v38.1h1.9V46.7z M130,18.7L112,57.1h1.9l5.2-11.1h23.6l5.2,11.1
		h2l-18.1-38.4H130z M119.9,44.3l10.9-23.4l11,23.4H119.9z M182.8,55.4h-23V19H158v38.1h24.8V55.4z M218.6,19l-14.8,20.9L188.9,19
		h-2.3l16.2,22.5v15.6h1.9V41.5L220.8,19H218.6z M260.6,57.1h2l-18.1-38.4h-1.7l-18.1,38.4h1.9l5.2-11.1h23.6L260.6,57.1z
		 M232.6,44.3l10.9-23.4l11,23.4H232.6z M300.2,53.9l-27.8-35h-1.7v38.1h1.9V21.9l28,35.2h1.5V19h-1.9V53.9z M330.7,41.6h9.7v7.2
		c-1.2,0.9-2.5,1.6-4.1,2.1c-1.6,0.5-3.3,0.8-5.1,0.8c-2,0-3.7-0.3-5.3-1c-1.6-0.7-2.9-1.6-4.1-2.8c-1.1-1.2-2-2.6-2.6-4.3
		c-0.6-1.7-0.9-3.5-0.9-5.5V38c0-1.8,0.3-3.5,1-5.2c0.6-1.6,1.5-3.1,2.6-4.3c1.1-1.2,2.4-2.2,3.9-2.9c1.5-0.7,3.1-1.1,4.9-1.1
		c1.2,0,2.3,0.1,3.3,0.3c1,0.2,1.9,0.5,2.8,0.8c0.8,0.3,1.6,0.8,2.4,1.3c0.8,0.5,1.5,1.1,2.2,1.7l4.2-5.1c-1-0.8-2-1.6-3-2.2
		c-1-0.6-2.1-1.2-3.3-1.6c-1.2-0.4-2.4-0.8-3.8-1c-1.4-0.2-2.9-0.4-4.5-0.4c-2.9,0-5.5,0.5-7.9,1.6c-2.4,1.1-4.5,2.5-6.3,4.3
		c-1.8,1.8-3.1,3.9-4.1,6.3c-1,2.4-1.5,4.9-1.5,7.6v0.1c0,2.8,0.5,5.4,1.4,7.8c0.9,2.4,2.3,4.4,4,6.2c1.7,1.8,3.8,3.1,6.2,4.1
		c2.4,1,5.1,1.5,8.1,1.5c1.7,0,3.3-0.2,4.8-0.5c1.5-0.3,2.9-0.7,4.3-1.3c1.3-0.5,2.6-1.2,3.7-1.9c1.1-0.7,2.2-1.5,3.1-2.3v-16h-16.2
		V41.6z M388.4,51.9c1.8-1.8,3.2-3.9,4.1-6.3c1-2.4,1.5-4.9,1.5-7.6v-0.1c0-2.7-0.5-5.2-1.5-7.6c-1-2.4-2.3-4.5-4.1-6.2
		c-1.7-1.8-3.8-3.2-6.3-4.2c-2.4-1-5.1-1.6-8.1-1.6s-5.6,0.5-8.1,1.6c-2.4,1.1-4.5,2.5-6.3,4.3c-1.8,1.8-3.2,3.9-4.1,6.3
		c-1,2.4-1.5,4.9-1.5,7.6v0.1c0,2.7,0.5,5.2,1.5,7.6c1,2.4,2.3,4.5,4.1,6.2c1.7,1.8,3.8,3.2,6.3,4.2c2.4,1,5.1,1.6,8.1,1.6
		s5.6-0.5,8.1-1.6C384.6,55.1,386.7,53.7,388.4,51.9z M374.2,51.6c-1.9,0-3.6-0.4-5.2-1.1c-1.6-0.7-3-1.7-4.1-2.9
		c-1.1-1.2-2-2.6-2.7-4.3c-0.6-1.7-0.9-3.4-0.9-5.3v-0.1c0-1.9,0.3-3.6,0.9-5.2c0.6-1.6,1.5-3.1,2.6-4.3c1.1-1.2,2.5-2.2,4-2.9
		c1.6-0.7,3.3-1.1,5.2-1.1c1.9,0,3.6,0.4,5.2,1.1c1.6,0.7,3,1.7,4.1,2.9c1.1,1.2,2,2.7,2.7,4.3c0.6,1.7,0.9,3.4,0.9,5.3v0.1
		c0,1.9-0.3,3.6-0.9,5.2c-0.6,1.6-1.5,3.1-2.6,4.3c-1.1,1.2-2.5,2.2-4,2.9C377.8,51.3,376.1,51.6,374.2,51.6z"/>
</g>
</svg>
